# File created by Blade
# Date/Time:  Wed Jan 21 15:55:51 2015
# Frame Rate: 120.000 fps
#------------------------------------------------------
:FULLY-SPECIFIED
:DEGREES
686
root 23.875451 15.180609 -12.874156 -175.941003 13.340334 -203.772873
Spine 21.189480 -11.644752 54.312189
Head 11.008197 24.535599 26.072569
LeftShoulder -13.951797 -54.871102 58.456168
LeftArm 42.137160 -17.108622 13.328666
LeftForeArm 22.427368 0.000000 -3.613905
LeftHand -10.152122 -0.000000 10.203963
LeftHandThumb1 -26.253704 0.000000 33.147579
RightShoulder -10.634493 2.484830 -6.020301
RightArm 12.748267 47.210475 66.385667
RightForeArm -19.817396 0.000000 71.094736
RightHand -17.038599 -0.000000 -70.434721
RightHandThumb1 -24.326973 -0.000000 -32.862282
LeftUpLeg 2.414540 32.150968 37.559546
LeftLeg -0.159357 -0.000000 0.000000
LeftFoot -3.096958 16.427309 -25.681582
LeftToeBase 43.734658 -0.000000 -0.000000
RightUpLeg -107.610907 -17.001803 -8.155048
RightLeg 133.436421 -0.000000 -0.000000
RightFoot -66.855607 -36.717579 35.821271
RightToeBase 22.012629 -0.000000 -0.000000
687
root 23.885073 15.183201 -12.864781 -175.902199 13.369546 -203.724403
Spine 21.177969 -11.716350 54.205328
Head 11.173575 24.560793 26.009501
LeftShoulder -13.823839 -54.845831 58.330372
LeftArm 42.176242 -17.101011 13.377566
LeftForeArm 22.451385 -0.000000 -3.660903
LeftHand -9.744037 0.000000 10.479002
LeftHandThumb1 -26.253704 0.000000 33.147579
RightShoulder -10.520159 2.631673 -6.110808
RightArm 12.644607 47.017918 66.364554
RightForeArm -19.733671 -0.000000 70.711947
RightHand -16.987363 -0.000000 -70.617624
RightHandThumb1 -24.326973 -0.000000 -32.862282
LeftUpLeg 2.408227 32.173725 37.595880
LeftLeg -0.180412 -0.000000 0.000000
LeftFoot -3.099684 16.471873 -25.636986
LeftToeBase 43.801542 -0.000000 -0.000000
RightUpLeg -107.624807 -16.970368 -8.081368
RightLeg 133.376714 -0.000000 -0.000000
RightFoot -66.868859 -36.862677 35.761131
RightToeBase 22.245855 -0.000000 -0.000000
688
root 23.894501 15.186515 -12.855964 -175.873114 13.401159 -203.679033
Spine 21.193369 -11.756838 54.092464
Head 11.266149 24.604948 25.995632
LeftShoulder -13.853818 -54.866155 58.337603
LeftArm 42.317740 -17.044671 13.330727
LeftForeArm 22.293124 -0.000000 -3.753526
LeftHand -9.521881 -0.000000 10.893509
LeftHandThumb1 -26.253704 0.000000 33.147579
RightShoulder -10.497698 2.365545 -6.074414
RightArm 13.257657 46.973776 66.809183
RightForeArm -19.645571 -0.000000 70.258853
RightHand -16.896231 -0.000000 -70.853402
RightHandThumb1 -24.326973 -0.000000 -32.862282
LeftUpLeg 2.409927 32.196948 37.631214
LeftLeg -0.200581 -0.000000 0.000000
LeftFoot -3.088417 16.518637 -25.633793
LeftToeBase 43.755618 -0.000000 -0.000000
RightUpLeg -107.648528 -16.929718 -7.998258
RightLeg 133.350766 -0.000000 -0.000000
RightFoot -66.841913 -36.881314 35.735806
RightToeBase 22.328719 -0.000000 -0.000000
689
root 23.902531 15.191274 -12.846987 -175.840935 13.439410 -203.653071
Spine 21.202892 -11.765847 53.976344
Head 11.353641 24.599425 25.944074
LeftShoulder -13.875793 -54.851976 58.340973
LeftArm 42.407259 -17.040161 13.251153
LeftForeArm 22.301560 0.000000 -3.793589
LeftHand -9.447064 -0.000000 11.189766
LeftHandThumb1 -26.253704 0.000000 33.147579
RightShoulder -10.455833 2.218708 -6.046173
RightArm 13.609384 46.909503 67.051241
RightForeArm -19.552585 -0.000000 69.874834
RightHand -16.824121 0.000000 -71.030054
RightHandThumb1 -24.326973 -0.000000 -32.862282
LeftUpLeg 2.409658 32.240003 37.641668
LeftLeg -0.229806 -0.000000 0.000000
LeftFoot -3.062713 16.569443 -25.597661
LeftToeBase 43.782140 -0.000000 -0.000000
RightUpLeg -107.704071 -16.874803 -7.908919
RightLeg 133.355285 -0.000000 -0.000000
RightFoot -66.784918 -36.729452 35.737856
RightToeBase 22.121905 -0.000000 -0.000000
690
root 23.909740 15.196148 -12.838490 -175.820737 13.480894 -203.606677
Spine 21.230706 -11.797735 53.904356
Head 11.441709 24.637572 25.855016
LeftShoulder -13.770309 -54.847432 58.250835
LeftArm 42.334870 -17.009325 13.291150
LeftForeArm 22.326091 -0.000000 -3.773293
LeftHand -9.531519 -0.000000 11.002503
LeftHandThumb1 -26.253704 0.000000 33.147579
RightShoulder -10.396792 2.218669 -6.116653
RightArm 13.720898 46.800565 67.179185
RightForeArm -19.475797 0.000000 69.536537
RightHand -16.794966 -0.000000 -71.189524
RightHandThumb1 -24.326973 -0.000000 -32.862282
LeftUpLeg 2.420550 32.296028 37.686672
LeftLeg -0.236050 -0.000000 0.000000
LeftFoot -3.036080 16.593164 -25.586475
LeftToeBase 43.738733 -0.000000 -0.000000
RightUpLeg -107.717178 -16.839830 -7.819209
RightLeg 133.321552 -0.000000 -0.000000
RightFoot -66.738273 -36.742399 35.637879
RightToeBase 21.970084 -0.000000 -0.000000
691
root 23.916611 15.201623 -12.830917 -175.786430 13.508109 -203.585850
Spine 21.208438 -11.803704 53.800618
Head 11.580959 24.630581 25.843384
LeftShoulder -13.777288 -54.836451 58.238837
LeftArm 42.402710 -16.995079 13.187416
LeftForeArm 22.372946 -0.000000 -3.784710
LeftHand -9.548406 -0.000000 10.916732
LeftHandThumb1 -26.253704 0.000000 33.147579
RightShoulder -10.352573 2.398394 -6.187717
RightArm 13.610496 46.631564 67.131545
RightForeArm -19.448880 -0.000000 69.139292
RightHand -16.734763 -0.000000 -71.341513
RightHandThumb1 -24.326973 -0.000000 -32.862282
LeftUpLeg 2.403645 32.348876 37.688769
LeftLeg -0.249603 -0.000000 0.000000
LeftFoot -3.003479 16.628033 -25.594605
LeftToeBase 43.765130 -0.000000 -0.000000
RightUpLeg -107.758538 -16.827895 -7.735077
RightLeg 133.296664 -0.000000 -0.000000
RightFoot -66.714916 -36.697576 35.612318
RightToeBase 21.862950 -0.000000 -0.000000
692
root 23.922186 15.207350 -12.823211 -175.768721 13.551006 -203.575560
Spine 21.221837 -11.808168 53.694193
Head 11.681084 24.641079 25.800872
LeftShoulder -13.806464 -54.860513 58.243863
LeftArm 42.437129 -16.878821 13.157260
LeftForeArm 22.266689 0.000000 -3.874918
LeftHand -9.353976 0.000000 11.525382
LeftHandThumb1 -26.253704 0.000000 33.147579
RightShoulder -10.296139 2.465245 -6.245034
RightArm 13.619413 46.530940 67.181584
RightForeArm -19.435579 -0.000000 68.805868
RightHand -16.733052 -0.000000 -71.451557
RightHandThumb1 -24.326973 -0.000000 -32.862282
LeftUpLeg 2.411484 32.416507 37.689908
LeftLeg -0.264751 -0.000000 0.000000
LeftFoot -2.973438 16.658580 -25.604393
LeftToeBase 43.769965 -0.000000 -0.000000
RightUpLeg -107.796851 -16.799912 -7.668576
RightLeg 133.270770 -0.000000 -0.000000
RightFoot -66.679059 -36.655908 35.596625
RightToeBase 21.853659 -0.000000 -0.000000
693
root 23.927176 15.212886 -12.813871 -175.751024 13.568213 -203.563296
Spine 21.213779 -11.809640 53.606098
Head 11.808306 24.624560 25.788171
LeftShoulder -13.687300 -54.789878 58.137967
LeftArm 42.342758 -16.866984 13.200324
LeftForeArm 22.326395 -0.000000 -3.854229
LeftHand -9.581561 -0.000000 10.804078
LeftHandThumb1 -26.253704 0.000000 33.147579
RightShoulder -10.200120 2.643195 -6.332048
RightArm 13.393904 46.453056 67.078576
RightForeArm -19.360550 -0.000000 68.516708
RightHand -16.687868 0.000000 -71.545270
RightHandThumb1 -24.326973 -0.000000 -32.862282
LeftUpLeg 2.387886 32.450986 37.684575
LeftLeg -0.260661 -0.000000 0.000000
LeftFoot -2.935651 16.687664 -25.592141
LeftToeBase 43.666716 -0.000000 -0.000000
RightUpLeg -107.828938 -16.804089 -7.598699
RightLeg 133.243984 -0.000000 -0.000000
RightFoot -66.624847 -36.656893 35.533439
RightToeBase 21.954052 -0.000000 -0.000000
